<?xml version="1.0" encoding="utf-8"?>
<!-- Generator: Adobe Illustrator 25.2.1, SVG Export Plug-In . SVG Version: 6.00 Build 0)  -->
<svg version="1.1" id="Layer_1" xmlns="http://www.w3.org/2000/svg" xmlns:xlink="http://www.w3.org/1999/xlink" x="0px" y="0px"
	 viewBox="0 0 500 500" style="enable-background:new 0 0 500 500;" xml:space="preserve">
<style type="text/css">
	.st0{fill:#F5333F;}
	.st1{fill:none;stroke:#011E41;stroke-width:16;stroke-miterlimit:10;}
	.st2{fill:none;stroke:#F5333F;stroke-width:16;stroke-miterlimit:10;}
	.st3{fill:none;stroke:#031F40;stroke-width:16;stroke-miterlimit:10;}
	.st4{fill:none;stroke:#011E41;stroke-width:15.3956;stroke-miterlimit:10;}
</style>
<g>
	<path class="st2" d="M370,84.7c-33-26-74.7-41.5-120-41.5c-45.3,0-87,15.5-120,41.5"/>
	<g>
		<circle class="st1" cx="339" cy="218.6" r="18.5"/>
		<g>
			<polyline class="st1" points="440.9,220.7 359.1,258.3 359.1,461.1 			"/>
		</g>
	</g>
	<g>
		<g>
			<line class="st1" x1="319" y1="253" x2="319" y2="461.4"/>
		</g>
	</g>
	<g>
		<circle class="st1" cx="161" cy="218.6" r="18.5"/>
		<g>
			<line class="st1" x1="59.1" y1="220.7" x2="140.9" y2="258.3"/>
		</g>
	</g>
	<g>
		<g>
			<line class="st1" x1="181" y1="253" x2="181" y2="336.5"/>
		</g>
	</g>
	<path class="st1" d="M59.1,220.7l81.8,37.7l-0.2,68.5c-38.9,0-70.4,31.5-70.4,70.4l-0.2,40.1"/>
	<circle class="st1" cx="145.2" cy="405.6" r="48.8"/>
	<g>
		<circle class="st1" cx="250.1" cy="134.9" r="24"/>
	</g>
	<g>
		<g>
			<polyline class="st1" points="381.9,125.5 276.1,186.3 276.1,460.4 			"/>
			<polyline class="st1" points="118,125.5 224.1,186.3 224.1,460.4 			"/>
		</g>
	</g>
</g>
</svg>
